<mxfile host="app.diagrams.net" agent="Mozilla/5.0 (Windows NT 10.0; Win64; x64) AppleWebKit/537.36 (KHTML, like Gecko) Chrome/130.0.0.0 Safari/537.36 Edg/130.0.0.0" version="24.8.3">
  <diagram name="Page-1" id="VZbKuDGytKO4O2w5h4JO">
    <mxGraphModel dx="1245" dy="666" grid="1" gridSize="10" guides="1" tooltips="1" connect="1" arrows="1" fold="1" page="1" pageScale="1" pageWidth="827" pageHeight="1169" math="0" shadow="0">
      <root>
        <mxCell id="0" />
        <mxCell id="1" parent="0" />
        <mxCell id="yxWAobRcNm5OAYdzYgQ4-5" value="" style="rounded=0;whiteSpace=wrap;html=1;" vertex="1" parent="1">
          <mxGeometry x="40" y="40" width="760" height="110" as="geometry" />
        </mxCell>
        <mxCell id="yxWAobRcNm5OAYdzYgQ4-1" value="Proximity Sensor" style="rounded=0;whiteSpace=wrap;html=1;" vertex="1" parent="1">
          <mxGeometry x="80" y="85" width="120" height="40" as="geometry" />
        </mxCell>
        <mxCell id="yxWAobRcNm5OAYdzYgQ4-2" value="Accelerometer&amp;nbsp;" style="rounded=0;whiteSpace=wrap;html=1;" vertex="1" parent="1">
          <mxGeometry x="250" y="85" width="120" height="40" as="geometry" />
        </mxCell>
        <mxCell id="yxWAobRcNm5OAYdzYgQ4-3" value="Gyroscope" style="rounded=0;whiteSpace=wrap;html=1;" vertex="1" parent="1">
          <mxGeometry x="413" y="85" width="120" height="40" as="geometry" />
        </mxCell>
        <mxCell id="yxWAobRcNm5OAYdzYgQ4-4" value="Galvanic Skin Response (GSR) Sensor" style="rounded=0;whiteSpace=wrap;html=1;" vertex="1" parent="1">
          <mxGeometry x="580" y="85" width="190" height="40" as="geometry" />
        </mxCell>
        <mxCell id="yxWAobRcNm5OAYdzYgQ4-6" value="SENSORS" style="text;html=1;align=center;verticalAlign=middle;whiteSpace=wrap;rounded=0;fontSize=16;" vertex="1" parent="1">
          <mxGeometry x="310" y="40" width="170" height="40" as="geometry" />
        </mxCell>
        <mxCell id="yxWAobRcNm5OAYdzYgQ4-7" value="" style="endArrow=classic;html=1;rounded=0;exitX=0.5;exitY=1;exitDx=0;exitDy=0;" edge="1" parent="1" source="yxWAobRcNm5OAYdzYgQ4-1">
          <mxGeometry width="50" height="50" relative="1" as="geometry">
            <mxPoint x="470" y="260" as="sourcePoint" />
            <mxPoint x="210" y="240" as="targetPoint" />
            <Array as="points">
              <mxPoint x="140" y="240" />
            </Array>
          </mxGeometry>
        </mxCell>
        <mxCell id="yxWAobRcNm5OAYdzYgQ4-8" value="" style="rounded=0;whiteSpace=wrap;html=1;" vertex="1" parent="1">
          <mxGeometry x="240" y="200" width="150" height="60" as="geometry" />
        </mxCell>
      </root>
    </mxGraphModel>
  </diagram>
</mxfile>
